<?xml version="1.0" standalone="no"?>
<!DOCTYPE svg PUBLIC "-//W3C//DTD SVG 20010904//EN"
 "http://www.w3.org/TR/2001/REC-SVG-20010904/DTD/svg10.dtd">
<svg version="1.0" xmlns="http://www.w3.org/2000/svg"
 width="1820.000000pt" height="1820.000000pt" viewBox="0 0 1820.000000 1820.000000"
 preserveAspectRatio="xMidYMid meet">
<metadata>
Created by potrace 1.14, written by Peter Selinger 2001-2017
</metadata>
<g transform="translate(0.000000,1820.000000) scale(0.100000,-0.100000)"
fill="#000000" stroke="none">
<path d="M0 9100 l0 -9100 9100 0 9100 0 0 9100 0 9100 -9100 0 -9100 0 0
-9100z m10022 2640 c356 -1273 715 -2558 798 -2854 166 -589 296 -1075 446
-1661 117 -460 233 -887 352 -1295 l89 -305 28 0 c22 0 30 6 36 25 4 14 54
189 112 390 138 478 218 776 392 1460 188 738 323 1251 493 1865 76 275 399
1444 717 2597 l580 2098 933 0 c884 0 933 -1 928 -17 -5 -16 -3138 -10109
-3152 -10155 -5 -17 -65 -18 -1077 -18 l-1072 0 -623 1998 c-343 1098 -623
2009 -622 2025 0 15 -3 27 -7 27 -5 0 -8 -249 -8 -553 0 -593 -5 -665 -60
-994 -125 -740 -379 -1289 -800 -1731 -359 -377 -895 -676 -1470 -821 -389
-97 -729 -135 -1220 -135 -344 -1 -464 8 -735 55 -457 79 -886 233 -1256 450
-275 161 -518 350 -750 583 -177 178 -290 313 -412 489 l-71 104 545 554 c300
305 549 555 552 556 4 2 17 -13 29 -32 58 -89 242 -304 373 -436 421 -423 889
-674 1390 -745 142 -20 510 -14 665 11 511 82 865 285 1087 625 155 236 249
544 305 990 15 123 17 387 20 2893 l4 2757 -2066 0 -2065 0 0 760 0 760 2972
-2 2973 -3 647 -2315z"/>
</g>
</svg>
