<?xml version="1.0" standalone="no"?>
<!DOCTYPE svg PUBLIC "-//W3C//DTD SVG 20010904//EN"
 "http://www.w3.org/TR/2001/REC-SVG-20010904/DTD/svg10.dtd">
<svg version="1.0" xmlns="http://www.w3.org/2000/svg"
 width="700.000000pt" height="700.000000pt" viewBox="0 0 700.000000 700.000000"
 preserveAspectRatio="xMidYMid meet">
<metadata>
Created by potrace 1.11, written by Peter Selinger 2001-2013
</metadata>
<g transform="translate(0.000000,700.000000) scale(0.100000,-0.100000)"
fill="#000000" stroke="none">
<path d="M3310 6994 c-389 -33 -616 -77 -910 -174 -851 -280 -1572 -890 -1990
-1682 -177 -335 -300 -696 -359 -1058 -36 -219 -45 -339 -45 -580 0 -241 9
-361 45 -580 119 -724 474 -1402 1005 -1920 578 -563 1275 -889 2099 -982 142
-16 548 -16 690 0 478 54 889 178 1292 391 302 160 552 343 807 591 531 518
886 1196 1005 1920 36 219 45 339 45 580 0 241 -9 361 -45 580 -119 724 -474
1402 -1005 1920 -566 552 -1259 882 -2049 975 -126 15 -493 27 -585 19z m190
-1340 c0 -34 10 -52 100 -174 43 -58 88 -125 100 -149 39 -78 23 -180 -38
-244 -29 -31 -100 -72 -109 -63 -3 3 2 8 11 12 23 9 46 57 46 97 0 23 -13 52
-41 92 -53 76 -93 125 -100 125 -15 0 -79 -174 -79 -211 0 -46 21 -94 46 -103
9 -4 14 -9 11 -12 -10 -10 -84 35 -112 68 -79 93 -76 184 11 376 42 92 121
212 140 212 8 0 14 -10 14 -26z m-1191 -538 c99 -132 131 -188 131 -229 0 -61
-34 -123 -84 -152 -50 -29 -65 -32 -44 -7 28 32 27 49 -8 100 -18 28 -38 53
-43 56 -5 4 -19 -19 -31 -51 -18 -47 -19 -61 -9 -85 6 -15 16 -28 22 -28 6 0
8 -3 5 -6 -11 -11 -74 24 -101 55 -42 51 -52 104 -32 175 19 69 95 221 127
256 l22 24 7 -33 c4 -18 21 -52 38 -75z m2496 -48 c35 -48 71 -100 79 -117 37
-70 3 -177 -70 -218 -51 -30 -56 -29 -36 7 16 28 16 31 -1 62 -10 18 -29 46
-42 62 l-23 29 -15 -29 c-26 -51 -31 -101 -13 -129 16 -25 16 -25 -11 -14 -79
30 -122 118 -102 208 13 58 91 219 126 261 l27 33 9 -34 c5 -19 37 -73 72
-121z m-1125 -733 l0 -615 -185 0 -185 0 0 615 0 615 185 0 185 0 0 -615z
m-2113 -654 c12 -18 27 -58 33 -89 5 -31 18 -84 28 -117 16 -53 21 -60 46 -63
16 -2 58 3 95 12 36 8 78 17 94 19 l27 4 0 -153 c0 -141 2 -156 20 -174 30
-30 83 -30 114 0 16 16 21 37 24 109 l4 89 31 6 c17 4 61 19 97 35 36 17 85
32 110 36 25 3 97 28 160 55 62 28 118 50 122 50 4 0 8 -104 8 -232 0 -224 1
-232 22 -255 28 -30 74 -30 105 -1 23 21 23 24 23 255 0 128 3 233 8 233 4 0
61 -21 127 -46 339 -128 466 -162 645 -171 218 -10 345 29 420 130 l35 47 3
-162 c2 -150 4 -164 24 -185 28 -30 74 -30 105 -1 23 21 23 25 23 231 l0 209
38 -7 c42 -8 215 -66 438 -148 244 -91 296 -102 459 -102 122 1 147 4 197 24
94 37 172 96 277 210 l99 108 18 -31 c43 -71 42 -46 43 -1188 l1 -1098 -2190
0 -2190 0 0 1103 0 1102 24 50 c13 28 37 63 54 79 30 27 126 69 147 62 6 -1
20 -17 32 -35z"/>
<path d="M1630 2646 c-54 -29 -80 -56 -112 -116 -19 -37 -23 -60 -23 -135 0
-142 16 -167 247 -402 l193 -195 188 193 c229 236 251 270 252 399 0 70 -4 94
-24 133 -76 155 -247 194 -382 86 l-40 -32 -27 26 c-71 68 -189 86 -272 43z"/>
<path d="M2664 2651 c-141 -64 -195 -251 -116 -407 22 -44 77 -108 218 -253
l189 -193 191 193 c152 156 196 206 219 254 32 69 43 167 26 232 -30 111 -130
193 -235 193 -57 0 -139 -33 -170 -69 -25 -28 -31 -27 -77 12 -67 58 -167 73
-245 38z"/>
<path d="M3706 2655 c-56 -20 -105 -63 -135 -120 -23 -44 -26 -62 -26 -145 0
-138 15 -162 246 -395 l189 -190 184 190 c208 214 243 265 253 368 9 97 -15
167 -80 231 -98 98 -232 98 -329 1 l-27 -27 -43 36 c-42 36 -119 66 -167 66
-14 -1 -43 -7 -65 -15z"/>
<path d="M4715 2651 c-61 -28 -98 -64 -130 -128 -26 -49 -30 -69 -30 -133 1
-63 6 -86 33 -144 29 -61 57 -94 223 -260 l190 -191 190 195 c207 213 242 264
255 373 14 121 -55 248 -158 291 -79 34 -196 11 -260 -51 l-27 -26 -33 28
c-49 42 -107 65 -163 65 -27 0 -68 -9 -90 -19z"/>
</g>
</svg>
